<svg xmlns="http://www.w3.org/2000/svg" xmlns:xlink="http://www.w3.org/1999/xlink" width="33" height="32" viewBox="0 0 33 32"><defs><path id="dfwia" d="M672.43 27.9c-.02.07-1.88 7.11-11.71 7.11-.85 0-1.74-.05-2.64-.15.75 10.75-6.13 14.84-6.43 15-.16.1-.34.14-.53.14a1.06 1.06 0 0 1-.94-.5c-.31-.5-.14-1.14.37-1.44.1-.05.56-.34 1.19-.92l-8.78-8.5a7.5 7.5 0 0 0-.95 1.15c-.33.53-1.07.6-1.47.37a1.2 1.2 0 0 1-.24-.18c-.34-.33-.4-.85-.15-1.27.15-.25 3.94-6.27 13.83-6.27.54 0 1.1.01 1.66.05-1.4-11.73 7.09-13.88 7.17-13.9.61-.14 1.19.24 1.31.8.13.55-.23 1.11-.8 1.25-.02 0-.46.1-1.09.4l7.65 7.42c.29-.54.4-.93.44-1.05.12-.52.73-.9 1.3-.77.27.06.5.22.66.46.16.24.21.52.15.8zm-16.54 6.71a21.7 21.7 0 0 0-4.79.13l4.66 4.51c.22-1.46.27-3.01.13-4.64zm-11.33 2.67l8.55 8.31.23-.25c.7-.96 1.28-2.1 1.72-3.32l.1-.25-6.65-6.47-.22.1a14.28 14.28 0 0 0-3.53 1.73zm13.29-4.56c1.57.2 3.06.25 4.4.12l-4.54-4.41c-.13 1.3-.08 2.74.14 4.29zm7.14-.4a8.93 8.93 0 0 0 3.44-1.98l.09-.1-8.2-7.83-.04.03a8.47 8.47 0 0 0-2.06 3.44l-.02.05 6.67 6.41z"/></defs><g><g transform="translate(-640 -18)"><use fill="#ffde00" xlink:href="#dfwia"/></g></g></svg>