<svg xmlns="http://www.w3.org/2000/svg" xmlns:xlink="http://www.w3.org/1999/xlink" width="27" height="30" viewBox="0 0 27 30"><defs><path id="h53sa" d="M1034.98 36.17c-.4 6.99-6.32 12.46-13.5 12.46-.25 0-.5 0-.75-.02-7.45-.4-13.18-6.63-12.77-13.89a13.35 13.35 0 0 1 12.29-12.4v-.8h-.12a1.1 1.1 0 0 1-1.13-1.1v-.36c0-.6.5-1.1 1.13-1.1h2.7c.61 0 1.11.5 1.11 1.1v.36c0 .6-.5 1.1-1.12 1.1h-.12v.8c3.07.27 5.82 1.53 7.94 3.44l.83-.8-.04-.04a.65.65 0 0 1 0-.93l.16-.16c.27-.26.7-.26.96 0l1.14 1.12c.27.26.27.67 0 .93l-.15.16c-.21.2-.51.24-.76.12l-.9.88c2.1 2.47 3.3 5.68 3.1 9.13zm-12.86-12.13l-.66-.02a11.6 11.6 0 0 0-11.7 10.8c-.35 6.29 4.61 11.69 11.07 12.04 6.5.34 12-4.52 12.35-10.78.36-6.3-4.6-11.7-11.06-12.04zm9.78 11.3h-.73v-.07a1.5 1.5 0 0 0-1.51-1.47h-5.88a3.09 3.09 0 0 0-2.65-1.5h-.05v-7.5c5.98 0 10.82 4.71 10.82 10.53zm-1.6-.23a.6.6 0 0 1-.62.6h-6.47a2.14 2.14 0 0 1-2.05 1.5 2.12 2.12 0 0 1-2.15-2.1c0-1.16.96-2.1 2.15-2.1.97 0 1.79.64 2.05 1.5h6.47a.6.6 0 0 1 .62.6z"/></defs><g><g transform="translate(-1008 -19)"><use fill="#ffde00" xlink:href="#h53sa"/></g></g></svg>