<svg xmlns="http://www.w3.org/2000/svg" xmlns:xlink="http://www.w3.org/1999/xlink" width="26" height="31" viewBox="0 0 26 31"><defs><path id="ctlka" d="M851.38 28.34h-6.15a.77.77 0 0 1-.77-.76c0-.42.35-.77.77-.77h6.15c.42 0 .77.35.77.77 0 .42-.35.76-.77.76zm18.34-.76c0 .42-.35.76-.77.76h-6.15a.77.77 0 0 1-.77-.76c0-.42.35-.77.77-.77h6.15c.43 0 .77.35.77.77zm-13.4-5.69v-6.13a.77.77 0 0 1 1.54 0v6.13a.77.77 0 0 1-1.54 0zm4.26 2.21a.76.76 0 0 1 0-1.08l4.36-4.34c.3-.3.78-.3 1.08 0 .3.3.3.78 0 1.08l-4.35 4.34a.78.78 0 0 1-.55.22.8.8 0 0 1-.54-.22zm-12.42-4.34a.76.76 0 0 1 0-1.08c.3-.3.79-.3 1.09 0l4.35 4.34a.76.76 0 0 1-.54 1.3c-.2 0-.4-.07-.55-.22zm19.25 15.66l-1.18 7.33a3.37 3.37 0 0 1-1.43 2.46c-.62.42-1.43.64-2.35.64h-9.16c-.87 0-1.67-.35-2.25-.92-.27.22-.63.37-1.01.37h-2.93c-.87 0-1.58-.71-1.58-1.58V34.2c0-.87.7-1.58 1.58-1.58H850c.48 0 .9.2 1.19.53l.07-.02c.11-.03.95-.3 1.77-.88 1.08-.77 1.62-1.74 1.62-2.87v-3.73c0-.33.22-.62.54-.72.08-.03 1.95-.6 3.34.41.87.65 1.31 1.72 1.31 3.2v3.09h4.4c.74 0 1.48.27 2.06.77.86.73 1.28 1.89 1.1 3.02zm-17.34-1.22a.04.04 0 0 0-.04-.05h-2.93a.04.04 0 0 0-.05.05v9.52c0 .03.02.05.05.05h2.93c.02 0 .04-.02.04-.05zm15.24-.65c-.3-.25-.68-.4-1.07-.4h-5.15a.77.77 0 0 1-.77-.76v-3.86c0-.96-.23-1.62-.7-1.96-.42-.31-1-.33-1.42-.29v3.1c0 1.64-.8 3.08-2.3 4.14-1.09.77-2.17 1.08-2.22 1.09h-.03l-.04.02v8.19l.01.09c.13.8.85 1.42 1.67 1.42h9.16c2.04 0 2.2-1.33 2.25-1.77l.01-.04 1.18-7.33a1.8 1.8 0 0 0-.58-1.64z"/></defs><g><g transform="translate(-844 -15)"><use fill="#ffde00" xlink:href="#ctlka"/></g></g></svg>